<svg width="29" height="49" viewBox="0 0 29 49" fill="none" xmlns="http://www.w3.org/2000/svg">
<path d="M20.9494 31.7192C20.9381 30.2727 20.5755 28.8539 19.8969 27.6005C19.2183 26.347 18.2467 25.3016 17.0764 24.5655L29 2.57635L26.2128 0.862061L14.0057 23.3638C12.5076 23.0077 10.9494 23.0569 9.47379 23.507C7.99815 23.9571 6.65213 24.7938 5.55883 25.9403C-0.473039 32.1306 -0.00582592 46.6026 0.0167292 47.2163C0.033383 47.659 0.210445 48.0776 0.510795 48.3844C0.811144 48.6912 1.21146 48.8624 1.62781 48.8621H25.7795C26.1176 48.8621 26.4472 48.7489 26.7215 48.5385C26.9958 48.3281 27.2009 48.0312 27.3079 47.6899C27.4148 47.3485 27.4181 46.9801 27.3173 46.6366C27.2164 46.2932 27.0166 45.9922 26.7461 45.7763C21.0429 41.2232 20.9494 31.8118 20.9494 31.7192ZM12.7765 26.5712C14.0659 26.5863 15.3003 27.1298 16.2227 28.0886C17.1451 29.0475 17.6846 30.3479 17.7289 31.7192C17.7289 31.7843 17.7321 32.0758 17.7563 32.5232L8.25094 28.0249C8.87707 27.4755 9.5996 27.0641 10.3765 26.8145C11.1534 26.565 11.9692 26.4823 12.7765 26.5712ZM18.4474 45.4335C17.1597 44.0383 16.3389 42.2312 16.1114 40.2906H12.8892C13.0046 42.1151 13.5402 43.8813 14.4488 45.4335H10.8673C10.2048 43.2087 9.80167 40.9057 9.66708 38.5763H6.44492C6.54882 40.8988 6.9084 43.2002 7.51629 45.4335H3.22277C3.27272 42.2861 3.68998 35.3329 6.12754 30.7712L18.2638 36.5141C18.8469 39.7357 20.09 42.7811 21.9048 45.4335H18.4474Z" fill="#36B864"/>
</svg>
