<svg width="204" height="55" viewBox="0 0 204 55" fill="none" xmlns="http://www.w3.org/2000/svg">
<path d="M20.9494 33.7192C20.9381 32.2727 20.5755 30.8539 19.8969 29.6005C19.2183 28.347 18.2467 27.3016 17.0764 26.5655L29 4.57635L26.2128 2.86206L14.0057 25.3638C12.5076 25.0077 10.9494 25.0569 9.47379 25.507C7.99815 25.9571 6.65213 26.7938 5.55883 27.9403C-0.473039 34.1306 -0.00582592 48.6026 0.0167292 49.2163C0.033383 49.659 0.210445 50.0776 0.510795 50.3844C0.811144 50.6912 1.21146 50.8624 1.62781 50.8621H25.7795C26.1176 50.8621 26.4472 50.7489 26.7215 50.5385C26.9958 50.3281 27.2009 50.0312 27.3079 49.6899C27.4148 49.3485 27.4181 48.9801 27.3173 48.6366C27.2164 48.2932 27.0166 47.9922 26.7461 47.7763C21.0429 43.2232 20.9494 33.8118 20.9494 33.7192ZM12.7765 28.5712C14.0659 28.5863 15.3003 29.1298 16.2227 30.0886C17.1451 31.0475 17.6846 32.3479 17.7289 33.7192C17.7289 33.7843 17.7321 34.0758 17.7563 34.5232L8.25094 30.0249C8.87707 29.4755 9.5996 29.0641 10.3765 28.8145C11.1534 28.565 11.9692 28.4823 12.7765 28.5712ZM18.4474 47.4335C17.1597 46.0383 16.3389 44.2312 16.1114 42.2906H12.8892C13.0046 44.1151 13.5402 45.8813 14.4488 47.4335H10.8673C10.2048 45.2087 9.80167 42.9057 9.66708 40.5763H6.44492C6.54882 42.8988 6.9084 45.2002 7.51629 47.4335H3.22277C3.27272 44.2861 3.68998 37.3329 6.12754 32.7712L18.2638 38.5141C18.8469 41.7357 20.09 44.7811 21.9048 47.4335H18.4474Z" fill="#36B864"/>
<path d="M45.7164 13.3621C47.1164 13.3621 48.2914 13.6454 49.2414 14.2121C50.1914 14.7787 50.8914 15.5204 51.3414 16.4371C51.7914 17.3537 52.0164 18.3371 52.0164 19.3871C52.0164 20.4371 51.7914 21.4121 51.3414 22.3121C50.9081 23.1954 50.2164 23.9121 49.2664 24.4621C48.3164 25.0121 47.1331 25.2871 45.7164 25.2871H42.6414V30.8621H39.2414V13.3621H45.7164ZM45.1914 22.4371C46.1747 22.4371 46.9997 22.2037 47.6664 21.7371C48.3331 21.2704 48.6664 20.4871 48.6664 19.3871C48.6664 18.2871 48.3331 17.5204 47.6664 17.0871C47.0164 16.6371 46.1914 16.4121 45.1914 16.4121H42.6414V22.4371H45.1914ZM54.2828 17.6621H57.7078V19.7621H57.8828C58.0995 19.1787 58.4995 18.6871 59.0828 18.2871C59.6661 17.8704 60.4161 17.6621 61.3328 17.6621C61.6828 17.6621 61.9828 17.6954 62.2328 17.7621L62.0828 20.9371C61.6661 20.8204 61.2245 20.7621 60.7578 20.7621C59.7245 20.7621 58.9578 21.0371 58.4578 21.5871C57.9578 22.1204 57.7078 23.0121 57.7078 24.2621V30.8621H54.2828V17.6621ZM69.6775 31.0621C68.2942 31.0621 67.1275 30.7537 66.1775 30.1371C65.2442 29.5037 64.5442 28.6704 64.0775 27.6371C63.6109 26.6037 63.3775 25.4704 63.3775 24.2371C63.3775 23.0037 63.6025 21.8704 64.0525 20.8371C64.5192 19.7871 65.2275 18.9454 66.1775 18.3121C67.1275 17.6787 68.2942 17.3621 69.6775 17.3621C71.0609 17.3621 72.2275 17.6787 73.1775 18.3121C74.1275 18.9287 74.8359 19.7537 75.3025 20.7871C75.7692 21.8204 76.0025 22.9537 76.0025 24.1871C76.0025 25.4204 75.7692 26.5621 75.3025 27.6121C74.8359 28.6454 74.1275 29.4787 73.1775 30.1121C72.2275 30.7454 71.0609 31.0621 69.6775 31.0621ZM69.6775 28.2621C70.6442 28.2621 71.3692 27.8787 71.8525 27.1121C72.3525 26.3287 72.6025 25.3537 72.6025 24.1871C72.6025 23.0204 72.3525 22.0621 71.8525 21.3121C71.3692 20.5454 70.6442 20.1621 69.6775 20.1621C68.7109 20.1621 67.9859 20.5454 67.5025 21.3121C67.0192 22.0621 66.7775 23.0204 66.7775 24.1871C66.7775 25.3537 67.0192 26.3287 67.5025 27.1121C68.0025 27.8787 68.7275 28.2621 69.6775 28.2621Z" fill="#36B864"/>
<path d="M85.9771 31.0621C84.3105 31.0621 82.8771 30.6537 81.6771 29.8371C80.4771 29.0204 79.5605 27.9287 78.9271 26.5621C78.3105 25.1787 78.0021 23.6704 78.0021 22.0371C78.0021 20.3871 78.3105 18.8787 78.9271 17.5121C79.5605 16.1454 80.4771 15.0537 81.6771 14.2371C82.8771 13.4204 84.3105 13.0121 85.9771 13.0121C88.0105 13.0121 89.6771 13.5954 90.9771 14.7621C92.2771 15.9287 93.1271 17.4621 93.5271 19.3621H90.1771C89.9438 18.3954 89.4521 17.6037 88.7021 16.9871C87.9688 16.3537 87.0771 16.0371 86.0271 16.0371C84.5771 16.0371 83.4771 16.5871 82.7271 17.6871C81.9771 18.7871 81.6021 20.2371 81.6021 22.0371C81.6021 23.8371 81.9771 25.2871 82.7271 26.3871C83.4771 27.4871 84.5771 28.0371 86.0271 28.0371C87.0605 28.0371 87.9271 27.7454 88.6271 27.1621C89.3271 26.5621 89.8105 25.8204 90.0771 24.9371H93.4271C93.0271 26.7371 92.1855 28.2121 90.9021 29.3621C89.6188 30.4954 87.9771 31.0621 85.9771 31.0621ZM100.083 30.9621C98.8493 30.9621 97.9326 30.7787 97.3326 30.4121C96.7493 30.0287 96.3826 29.5621 96.2326 29.0121C96.0993 28.4454 96.0326 27.7287 96.0326 26.8621V12.1121H99.4826V26.1621C99.4826 26.7621 99.5076 27.2121 99.5576 27.5121C99.6243 27.7954 99.791 28.0287 100.058 28.2121C100.341 28.3787 100.783 28.4621 101.383 28.4621C101.583 28.4621 101.816 28.4454 102.083 28.4121V30.8121C101.233 30.9121 100.566 30.9621 100.083 30.9621ZM110.278 31.0621C108.895 31.0621 107.728 30.7454 106.778 30.1121C105.828 29.4621 105.12 28.6204 104.653 27.5871C104.203 26.5371 103.978 25.4121 103.978 24.2121C103.978 23.0121 104.203 21.8954 104.653 20.8621C105.12 19.8121 105.828 18.9621 106.778 18.3121C107.728 17.6621 108.903 17.3371 110.303 17.3371C112.153 17.3371 113.62 17.9287 114.703 19.1121C115.803 20.2954 116.353 22.0037 116.353 24.2371V25.1871H107.303V25.3871C107.303 26.1871 107.578 26.8787 108.128 27.4621C108.678 28.0287 109.37 28.3121 110.203 28.3121C110.853 28.3121 111.403 28.1621 111.853 27.8621C112.303 27.5621 112.628 27.1537 112.828 26.6371H116.228C115.878 27.9371 115.195 29.0037 114.178 29.8371C113.161 30.6537 111.861 31.0621 110.278 31.0621ZM113.028 22.9371C112.995 21.8871 112.728 21.1121 112.228 20.6121C111.728 20.1121 111.07 19.8621 110.253 19.8621C109.386 19.8621 108.703 20.1371 108.203 20.6871C107.703 21.2371 107.436 21.9871 107.403 22.9371H113.028ZM123.457 31.0621C121.824 31.0621 120.549 30.4371 119.632 29.1871C118.716 27.9371 118.257 26.2871 118.257 24.2371C118.257 22.1537 118.716 20.4871 119.632 19.2371C120.566 17.9704 121.866 17.3371 123.532 17.3371C124.649 17.3371 125.524 17.5954 126.157 18.1121C126.791 18.6121 127.241 19.1454 127.507 19.7121H127.707V17.6621H131.182V30.8621H127.707V28.5871H127.507C127.207 29.2037 126.741 29.7704 126.107 30.2871C125.474 30.8037 124.591 31.0621 123.457 31.0621ZM124.732 28.2621C125.716 28.2621 126.457 27.8621 126.957 27.0621C127.457 26.2621 127.707 25.3037 127.707 24.1871C127.707 23.0704 127.457 22.1204 126.957 21.3371C126.474 20.5537 125.732 20.1621 124.732 20.1621C123.732 20.1621 122.991 20.5537 122.507 21.3371C122.024 22.1204 121.782 23.0704 121.782 24.1871C121.782 25.3204 122.024 26.2871 122.507 27.0871C122.991 27.8704 123.732 28.2621 124.732 28.2621ZM134.212 17.6621H137.712V19.6871H137.887C138.187 19.0371 138.67 18.4871 139.337 18.0371C140.004 17.5704 140.812 17.3371 141.762 17.3371C143.479 17.3371 144.687 17.8871 145.387 18.9871C146.104 20.0871 146.462 21.3371 146.462 22.7371V30.8621H143.012V23.3121C143.012 22.3454 142.779 21.5871 142.312 21.0371C141.862 20.4871 141.22 20.2121 140.387 20.2121C139.504 20.2121 138.837 20.5037 138.387 21.0871C137.937 21.6537 137.712 22.3954 137.712 23.3121V30.8621H134.212V17.6621ZM149.627 17.6621H153.077V30.8621H149.627V17.6621ZM151.327 15.3871C150.777 15.3871 150.318 15.2037 149.952 14.8371C149.585 14.4537 149.402 13.9954 149.402 13.4621C149.402 12.9121 149.585 12.4537 149.952 12.0871C150.318 11.7204 150.777 11.5371 151.327 11.5371C151.877 11.5371 152.335 11.7287 152.702 12.1121C153.068 12.4787 153.252 12.9287 153.252 13.4621C153.252 13.9954 153.068 14.4537 152.702 14.8371C152.335 15.2037 151.877 15.3871 151.327 15.3871ZM156.502 17.6621H160.002V19.6871H160.177C160.477 19.0371 160.96 18.4871 161.627 18.0371C162.294 17.5704 163.102 17.3371 164.052 17.3371C165.769 17.3371 166.977 17.8871 167.677 18.9871C168.394 20.0871 168.752 21.3371 168.752 22.7371V30.8621H165.302V23.3121C165.302 22.3454 165.069 21.5871 164.602 21.0371C164.152 20.4871 163.51 20.2121 162.677 20.2121C161.794 20.2121 161.127 20.5037 160.677 21.0871C160.227 21.6537 160.002 22.3954 160.002 23.3121V30.8621H156.502V17.6621ZM177.891 36.4121C177.274 36.4121 176.807 36.3704 176.491 36.2871C176.174 36.2204 175.857 36.1287 175.541 36.0121V33.2371C175.707 33.2871 175.974 33.3371 176.341 33.3871C176.724 33.4537 177.091 33.4871 177.441 33.4871C178.607 33.4871 179.424 33.1537 179.891 32.4871C180.374 31.8371 180.616 31.0204 180.616 30.0371V28.2871H180.416C180.149 28.8871 179.682 29.4454 179.016 29.9621C178.349 30.4787 177.466 30.7371 176.366 30.7371C175.299 30.7371 174.374 30.4621 173.591 29.9121C172.807 29.3454 172.207 28.5621 171.791 27.5621C171.374 26.5454 171.166 25.3787 171.166 24.0621C171.166 22.7121 171.374 21.5371 171.791 20.5371C172.207 19.5204 172.807 18.7371 173.591 18.1871C174.391 17.6204 175.324 17.3371 176.391 17.3371C177.507 17.3371 178.399 17.6121 179.066 18.1621C179.732 18.6954 180.182 19.2621 180.416 19.8621H180.616V17.6621H184.091V30.0371C184.091 30.8871 183.932 31.7871 183.616 32.7371C183.316 33.7037 182.707 34.5537 181.791 35.2871C180.874 36.0371 179.574 36.4121 177.891 36.4121ZM177.666 27.9371C178.632 27.9371 179.366 27.5454 179.866 26.7621C180.366 25.9787 180.616 25.0621 180.616 24.0121C180.616 22.9787 180.366 22.0787 179.866 21.3121C179.382 20.5287 178.649 20.1371 177.666 20.1371C176.682 20.1371 175.941 20.5287 175.441 21.3121C174.941 22.0787 174.691 22.9787 174.691 24.0121C174.691 25.0621 174.932 25.9787 175.416 26.7621C175.916 27.5454 176.666 27.9371 177.666 27.9371Z" fill="white"/>
<path d="M42.1484 51.4471C41.3484 51.4471 40.6604 51.2511 40.0844 50.8591C39.5084 50.4671 39.0684 49.9431 38.7644 49.2871C38.4684 48.6231 38.3204 47.8991 38.3204 47.1151C38.3204 46.3231 38.4684 45.5991 38.7644 44.9431C39.0684 44.2871 39.5084 43.7631 40.0844 43.3711C40.6604 42.9791 41.3484 42.7831 42.1484 42.7831C43.1244 42.7831 43.9244 43.0631 44.5484 43.6231C45.1724 44.1831 45.5804 44.9191 45.7724 45.8311H44.1644C44.0524 45.3671 43.8164 44.9871 43.4564 44.6911C43.1044 44.3871 42.6764 44.2351 42.1724 44.2351C41.4764 44.2351 40.9484 44.4991 40.5884 45.0271C40.2284 45.5551 40.0484 46.2511 40.0484 47.1151C40.0484 47.9791 40.2284 48.6751 40.5884 49.2031C40.9484 49.7311 41.4764 49.9951 42.1724 49.9951C42.6684 49.9951 43.0844 49.8551 43.4204 49.5751C43.7564 49.2871 43.9884 48.9311 44.1164 48.5071H45.7244C45.5324 49.3711 45.1284 50.0791 44.5124 50.6311C43.8964 51.1751 43.1084 51.4471 42.1484 51.4471ZM48.919 51.3991C48.327 51.3991 47.887 51.3111 47.599 51.1351C47.319 50.9511 47.143 50.7271 47.071 50.4631C47.007 50.1911 46.975 49.8471 46.975 49.4311V42.3511H48.631V49.0951C48.631 49.3831 48.643 49.5991 48.667 49.7431C48.699 49.8791 48.779 49.9911 48.907 50.0791C49.043 50.1591 49.255 50.1991 49.543 50.1991C49.639 50.1991 49.751 50.1911 49.879 50.1751V51.3271C49.471 51.3751 49.151 51.3991 48.919 51.3991ZM53.8129 51.4471C53.1489 51.4471 52.5889 51.2951 52.1329 50.9911C51.6769 50.6791 51.3369 50.2751 51.1129 49.7791C50.8969 49.2751 50.7889 48.7351 50.7889 48.1591C50.7889 47.5831 50.8969 47.0471 51.1129 46.5511C51.3369 46.0471 51.6769 45.6391 52.1329 45.3271C52.5889 45.0151 53.1529 44.8591 53.8249 44.8591C54.7129 44.8591 55.4169 45.1431 55.9369 45.7111C56.4649 46.2791 56.7289 47.0991 56.7289 48.1711V48.6271H52.3849V48.7231C52.3849 49.1071 52.5169 49.4391 52.7809 49.7191C53.0449 49.9911 53.3769 50.1271 53.7769 50.1271C54.0889 50.1271 54.3529 50.0551 54.5689 49.9111C54.7849 49.7671 54.9409 49.5711 55.0369 49.3231H56.6689C56.5009 49.9471 56.1729 50.4591 55.6849 50.8591C55.1969 51.2511 54.5729 51.4471 53.8129 51.4471ZM55.1329 47.5471C55.1169 47.0431 54.9889 46.6711 54.7489 46.4311C54.5089 46.1911 54.1929 46.0711 53.8009 46.0711C53.3849 46.0711 53.0569 46.2031 52.8169 46.4671C52.5769 46.7311 52.4489 47.0911 52.4329 47.5471H55.1329ZM60.1389 51.4471C59.3549 51.4471 58.7429 51.1471 58.3029 50.5471C57.8629 49.9471 57.6429 49.1551 57.6429 48.1711C57.6429 47.1711 57.8629 46.3711 58.3029 45.7711C58.7509 45.1631 59.3749 44.8591 60.1749 44.8591C60.7109 44.8591 61.1309 44.9831 61.4349 45.2311C61.7389 45.4711 61.9549 45.7271 62.0829 45.9991H62.1789V45.0151H63.8469V51.3511H62.1789V50.2591H62.0829C61.9389 50.5551 61.7149 50.8271 61.4109 51.0751C61.1069 51.3231 60.6829 51.4471 60.1389 51.4471ZM60.7509 50.1031C61.2229 50.1031 61.5789 49.9111 61.8189 49.5271C62.0589 49.1431 62.1789 48.6831 62.1789 48.1471C62.1789 47.6111 62.0589 47.1551 61.8189 46.7791C61.5869 46.4031 61.2309 46.2151 60.7509 46.2151C60.2709 46.2151 59.9149 46.4031 59.6829 46.7791C59.4509 47.1551 59.3349 47.6111 59.3349 48.1471C59.3349 48.6911 59.4509 49.1551 59.6829 49.5391C59.9149 49.9151 60.2709 50.1031 60.7509 50.1031ZM65.3012 45.0151H66.9812V45.9871H67.0652C67.2092 45.6751 67.4412 45.4111 67.7612 45.1951C68.0812 44.9711 68.4692 44.8591 68.9252 44.8591C69.7492 44.8591 70.3292 45.1231 70.6652 45.6511C71.0092 46.1791 71.1812 46.7791 71.1812 47.4511V51.3511H69.5252V47.7271C69.5252 47.2631 69.4132 46.8991 69.1892 46.6351C68.9732 46.3711 68.6652 46.2391 68.2652 46.2391C67.8412 46.2391 67.5212 46.3791 67.3052 46.6591C67.0892 46.9311 66.9812 47.2871 66.9812 47.7271V51.3511H65.3012V45.0151ZM72.7002 45.0151H74.3562V51.3511H72.7002V45.0151ZM73.5162 43.9231C73.2522 43.9231 73.0322 43.8351 72.8562 43.6591C72.6802 43.4751 72.5922 43.2551 72.5922 42.9991C72.5922 42.7351 72.6802 42.5151 72.8562 42.3391C73.0322 42.1631 73.2522 42.0751 73.5162 42.0751C73.7802 42.0751 74.0002 42.1671 74.1762 42.3511C74.3522 42.5271 74.4402 42.7431 74.4402 42.9991C74.4402 43.2551 74.3522 43.4751 74.1762 43.6591C74.0002 43.8351 73.7802 43.9231 73.5162 43.9231ZM76.0004 45.0151H77.6804V45.9871H77.7644C77.9084 45.6751 78.1404 45.4111 78.4604 45.1951C78.7804 44.9711 79.1684 44.8591 79.6244 44.8591C80.4484 44.8591 81.0284 45.1231 81.3644 45.6511C81.7084 46.1791 81.8804 46.7791 81.8804 47.4511V51.3511H80.2244V47.7271C80.2244 47.2631 80.1124 46.8991 79.8884 46.6351C79.6724 46.3711 79.3644 46.2391 78.9644 46.2391C78.5404 46.2391 78.2204 46.3791 78.0044 46.6591C77.7884 46.9311 77.6804 47.2871 77.6804 47.7271V51.3511H76.0004V45.0151ZM86.2669 54.0151C85.9709 54.0151 85.7469 53.9951 85.5949 53.9551C85.4429 53.9231 85.2909 53.8791 85.1389 53.8231V52.4911C85.2189 52.5151 85.3469 52.5391 85.5229 52.5631C85.7069 52.5951 85.8829 52.6111 86.0509 52.6111C86.6109 52.6111 87.0029 52.4511 87.2269 52.1311C87.4589 51.8191 87.5749 51.4271 87.5749 50.9551V50.1151H87.4789C87.3509 50.4031 87.1269 50.6711 86.8069 50.9191C86.4869 51.1671 86.0629 51.2911 85.5349 51.2911C85.0229 51.2911 84.5789 51.1591 84.2029 50.8951C83.8269 50.6231 83.5389 50.2471 83.3389 49.7671C83.1389 49.2791 83.0389 48.7191 83.0389 48.0871C83.0389 47.4391 83.1389 46.8751 83.3389 46.3951C83.5389 45.9071 83.8269 45.5311 84.2029 45.2671C84.5869 44.9951 85.0349 44.8591 85.5469 44.8591C86.0829 44.8591 86.5109 44.9911 86.8309 45.2551C87.1509 45.5111 87.3669 45.7831 87.4789 46.0711H87.5749V45.0151H89.2429V50.9551C89.2429 51.3631 89.1669 51.7951 89.0149 52.2511C88.8709 52.7151 88.5789 53.1231 88.1389 53.4751C87.6989 53.8351 87.0749 54.0151 86.2669 54.0151ZM86.1589 49.9471C86.6229 49.9471 86.9749 49.7591 87.2149 49.3831C87.4549 49.0071 87.5749 48.5671 87.5749 48.0631C87.5749 47.5671 87.4549 47.1351 87.2149 46.7671C86.9829 46.3911 86.6309 46.2031 86.1589 46.2031C85.6869 46.2031 85.3309 46.3911 85.0909 46.7671C84.8509 47.1351 84.7309 47.5671 84.7309 48.0631C84.7309 48.5671 84.8469 49.0071 85.0789 49.3831C85.3189 49.7591 85.6789 49.9471 86.1589 49.9471ZM96.4153 51.4591C95.7433 51.4591 95.1633 51.3271 94.6753 51.0631C94.1953 50.7911 93.8313 50.4431 93.5833 50.0191C93.3353 49.5951 93.2113 49.1471 93.2113 48.6751V48.6031H95.0353V48.6751C95.0353 48.8751 95.0833 49.0791 95.1793 49.2871C95.2833 49.4871 95.4393 49.6551 95.6473 49.7911C95.8633 49.9271 96.1273 49.9951 96.4393 49.9951C96.8313 49.9951 97.1473 49.8951 97.3873 49.6951C97.6353 49.4951 97.7593 49.2271 97.7593 48.8911C97.7593 48.6031 97.6553 48.3751 97.4473 48.2071C97.2473 48.0311 96.9993 47.9151 96.7033 47.8591L95.6833 47.6431C95.1553 47.5391 94.6473 47.3151 94.1593 46.9711C93.6713 46.6191 93.4273 46.0471 93.4273 45.2551C93.4273 44.7431 93.5513 44.3031 93.7993 43.9351C94.0473 43.5591 94.3913 43.2751 94.8313 43.0831C95.2713 42.8831 95.7713 42.7831 96.3313 42.7831C96.9713 42.7831 97.5193 42.9071 97.9753 43.1551C98.4393 43.4031 98.7873 43.7231 99.0193 44.1151C99.2593 44.5071 99.3793 44.9231 99.3793 45.3631V45.4111H97.5553V45.3751C97.5553 45.0871 97.4513 44.8191 97.2433 44.5711C97.0433 44.3151 96.7193 44.1871 96.2713 44.1871C95.9033 44.1871 95.6153 44.2871 95.4073 44.4871C95.1993 44.6791 95.0953 44.9271 95.0953 45.2311C95.0953 45.5191 95.1993 45.7471 95.4073 45.9151C95.6233 46.0831 95.8873 46.1991 96.1993 46.2631L97.2073 46.4791C97.8233 46.6151 98.3593 46.8671 98.8153 47.2351C99.2713 47.6031 99.4993 48.1431 99.4993 48.8551C99.4993 49.3671 99.3673 49.8231 99.1033 50.2231C98.8393 50.6151 98.4713 50.9191 97.9993 51.1351C97.5353 51.3511 97.0073 51.4591 96.4153 51.4591ZM103.454 51.4471C102.79 51.4471 102.23 51.2951 101.774 50.9911C101.318 50.6791 100.978 50.2751 100.754 49.7791C100.538 49.2751 100.43 48.7351 100.43 48.1591C100.43 47.5831 100.538 47.0471 100.754 46.5511C100.978 46.0471 101.318 45.6391 101.774 45.3271C102.23 45.0151 102.794 44.8591 103.465 44.8591C104.354 44.8591 105.058 45.1431 105.578 45.7111C106.106 46.2791 106.37 47.0991 106.37 48.1711V48.6271H102.026V48.7231C102.026 49.1071 102.158 49.4391 102.422 49.7191C102.686 49.9911 103.018 50.1271 103.418 50.1271C103.73 50.1271 103.994 50.0551 104.21 49.9111C104.426 49.7671 104.582 49.5711 104.678 49.3231H106.31C106.142 49.9471 105.814 50.4591 105.326 50.8591C104.838 51.2511 104.214 51.4471 103.454 51.4471ZM104.774 47.5471C104.758 47.0431 104.63 46.6711 104.39 46.4311C104.15 46.1911 103.834 46.0711 103.442 46.0711C103.026 46.0711 102.698 46.2031 102.458 46.4671C102.218 46.7311 102.09 47.0911 102.074 47.5471H104.774ZM107.584 45.0151H109.228V46.0231H109.312C109.416 45.7431 109.608 45.5071 109.888 45.3151C110.168 45.1151 110.528 45.0151 110.968 45.0151C111.136 45.0151 111.28 45.0311 111.4 45.0631L111.328 46.5871C111.128 46.5311 110.916 46.5031 110.692 46.5031C110.196 46.5031 109.828 46.6351 109.588 46.8991C109.348 47.1551 109.228 47.5831 109.228 48.1831V51.3511H107.584V45.0151ZM112.283 45.0151H113.855L115.367 49.6711H115.439L116.927 45.0151H118.499L116.387 51.3511H114.383L112.283 45.0151ZM119.599 45.0151H121.255V51.3511H119.599V45.0151ZM120.415 43.9231C120.151 43.9231 119.931 43.8351 119.755 43.6591C119.579 43.4751 119.491 43.2551 119.491 42.9991C119.491 42.7351 119.579 42.5151 119.755 42.3391C119.931 42.1631 120.151 42.0751 120.415 42.0751C120.679 42.0751 120.899 42.1671 121.075 42.3511C121.251 42.5271 121.339 42.7431 121.339 42.9991C121.339 43.2551 121.251 43.4751 121.075 43.6591C120.899 43.8351 120.679 43.9231 120.415 43.9231ZM125.661 51.4591C124.989 51.4591 124.425 51.3031 123.969 50.9911C123.513 50.6791 123.173 50.2711 122.949 49.7671C122.733 49.2631 122.625 48.7231 122.625 48.1471C122.625 47.5791 122.733 47.0471 122.949 46.5511C123.173 46.0471 123.513 45.6391 123.969 45.3271C124.425 45.0151 124.989 44.8591 125.661 44.8591C126.509 44.8591 127.177 45.1031 127.665 45.5911C128.161 46.0711 128.461 46.6791 128.565 47.4151H126.945C126.889 47.0551 126.753 46.7671 126.537 46.5511C126.329 46.3271 126.041 46.2151 125.673 46.2151C125.185 46.2151 124.825 46.4031 124.593 46.7791C124.369 47.1551 124.257 47.6111 124.257 48.1471C124.257 48.6991 124.369 49.1631 124.593 49.5391C124.825 49.9151 125.185 50.1031 125.673 50.1031C126.033 50.1031 126.321 49.9951 126.537 49.7791C126.753 49.5551 126.889 49.2631 126.945 48.9031H128.565C128.461 49.6391 128.161 50.2511 127.665 50.7391C127.177 51.2191 126.509 51.4591 125.661 51.4591ZM132.528 51.4471C131.864 51.4471 131.304 51.2951 130.848 50.9911C130.392 50.6791 130.052 50.2751 129.828 49.7791C129.612 49.2751 129.504 48.7351 129.504 48.1591C129.504 47.5831 129.612 47.0471 129.828 46.5511C130.052 46.0471 130.392 45.6391 130.848 45.3271C131.304 45.0151 131.868 44.8591 132.54 44.8591C133.428 44.8591 134.132 45.1431 134.652 45.7111C135.18 46.2791 135.444 47.0991 135.444 48.1711V48.6271H131.1V48.7231C131.1 49.1071 131.232 49.4391 131.496 49.7191C131.76 49.9911 132.092 50.1271 132.492 50.1271C132.804 50.1271 133.068 50.0551 133.284 49.9111C133.5 49.7671 133.656 49.5711 133.752 49.3231H135.384C135.216 49.9471 134.888 50.4591 134.4 50.8591C133.912 51.2511 133.288 51.4471 132.528 51.4471ZM133.848 47.5471C133.832 47.0431 133.704 46.6711 133.464 46.4311C133.224 46.1911 132.908 46.0711 132.516 46.0711C132.1 46.0711 131.772 46.2031 131.532 46.4671C131.292 46.7311 131.164 47.0911 131.148 47.5471H133.848ZM138.962 51.4471C138.426 51.4471 137.962 51.3471 137.57 51.1471C137.186 50.9471 136.894 50.6871 136.694 50.3671C136.494 50.0391 136.394 49.6951 136.394 49.3351V49.2631H138.014V49.3351C138.014 49.5511 138.098 49.7431 138.266 49.9111C138.434 50.0791 138.678 50.1631 138.998 50.1631C139.262 50.1631 139.474 50.1031 139.634 49.9831C139.802 49.8551 139.886 49.6831 139.886 49.4671C139.886 49.2751 139.814 49.1231 139.67 49.0111C139.526 48.8991 139.346 48.8271 139.13 48.7951L138.41 48.6511C137.938 48.5631 137.51 48.3751 137.126 48.0871C136.742 47.7991 136.55 47.3631 136.55 46.7791C136.55 46.1791 136.77 45.7111 137.21 45.3751C137.65 45.0311 138.214 44.8591 138.902 44.8591C139.406 44.8591 139.842 44.9511 140.21 45.1351C140.578 45.3191 140.858 45.5631 141.05 45.8671C141.242 46.1631 141.338 46.4831 141.338 46.8271V46.8751H139.718V46.8391C139.718 46.6471 139.646 46.4711 139.502 46.3111C139.358 46.1431 139.138 46.0591 138.842 46.0591C138.594 46.0591 138.394 46.1231 138.242 46.2511C138.09 46.3791 138.014 46.5471 138.014 46.7551C138.014 46.9471 138.09 47.0991 138.242 47.2111C138.402 47.3231 138.598 47.3991 138.83 47.4391L139.622 47.5951C140.134 47.7071 140.566 47.9111 140.918 48.2071C141.27 48.4951 141.446 48.9071 141.446 49.4431C141.446 49.8431 141.338 50.1951 141.122 50.4991C140.906 50.8031 140.606 51.0391 140.222 51.2071C139.846 51.3671 139.426 51.4471 138.962 51.4471ZM148.149 51.4591C147.477 51.4591 146.913 51.3031 146.457 50.9911C146.001 50.6791 145.661 50.2711 145.437 49.7671C145.221 49.2631 145.113 48.7231 145.113 48.1471C145.113 47.5791 145.221 47.0471 145.437 46.5511C145.661 46.0471 146.001 45.6391 146.457 45.3271C146.913 45.0151 147.477 44.8591 148.149 44.8591C148.997 44.8591 149.665 45.1031 150.153 45.5911C150.649 46.0711 150.949 46.6791 151.053 47.4151H149.433C149.377 47.0551 149.241 46.7671 149.025 46.5511C148.817 46.3271 148.529 46.2151 148.161 46.2151C147.673 46.2151 147.313 46.4031 147.081 46.7791C146.857 47.1551 146.745 47.6111 146.745 48.1471C146.745 48.6991 146.857 49.1631 147.081 49.5391C147.313 49.9151 147.673 50.1031 148.161 50.1031C148.521 50.1031 148.809 49.9951 149.025 49.7791C149.241 49.5551 149.377 49.2631 149.433 48.9031H151.053C150.949 49.6391 150.649 50.2511 150.153 50.7391C149.665 51.2191 148.997 51.4591 148.149 51.4591ZM155.016 51.4471C154.352 51.4471 153.792 51.2991 153.336 51.0031C152.888 50.6991 152.552 50.2991 152.328 49.8031C152.104 49.3071 151.992 48.7631 151.992 48.1711C151.992 47.5791 152.1 47.0351 152.316 46.5391C152.54 46.0351 152.88 45.6311 153.336 45.3271C153.792 45.0231 154.352 44.8711 155.016 44.8711C155.68 44.8711 156.24 45.0231 156.696 45.3271C157.152 45.6231 157.492 46.0191 157.716 46.5151C157.94 47.0111 158.052 47.5551 158.052 48.1471C158.052 48.7391 157.94 49.2871 157.716 49.7911C157.492 50.2871 157.152 50.6871 156.696 50.9911C156.24 51.2951 155.68 51.4471 155.016 51.4471ZM155.016 50.1031C155.48 50.1031 155.828 49.9191 156.06 49.5511C156.3 49.1751 156.42 48.7071 156.42 48.1471C156.42 47.5871 156.3 47.1271 156.06 46.7671C155.828 46.3991 155.48 46.2151 155.016 46.2151C154.552 46.2151 154.204 46.3991 153.972 46.7671C153.74 47.1271 153.624 47.5871 153.624 48.1471C153.624 48.7071 153.74 49.1751 153.972 49.5511C154.212 49.9191 154.56 50.1031 155.016 50.1031ZM159.227 45.0151H160.895V46.0351H160.979C161.067 45.8111 161.251 45.5591 161.531 45.2791C161.811 44.9991 162.219 44.8591 162.755 44.8591C163.171 44.8591 163.519 44.9551 163.799 45.1471C164.079 45.3391 164.283 45.5431 164.411 45.7591C164.547 45.9671 164.627 46.1191 164.651 46.2151H164.735C164.831 45.9591 165.031 45.6711 165.335 45.3511C165.639 45.0231 166.107 44.8591 166.739 44.8591C167.291 44.8591 167.727 45.0031 168.047 45.2911C168.375 45.5711 168.603 45.9111 168.731 46.3111C168.867 46.7031 168.935 47.0831 168.935 47.4511V51.3511H167.267V47.6191C167.267 47.1871 167.155 46.8591 166.931 46.6351C166.707 46.4111 166.435 46.2991 166.115 46.2991C165.787 46.2991 165.503 46.4151 165.263 46.6471C165.031 46.8791 164.915 47.2031 164.915 47.6191V51.3511H163.247V47.6191C163.247 47.1871 163.135 46.8591 162.911 46.6351C162.687 46.4111 162.415 46.2991 162.095 46.2991C161.767 46.2991 161.483 46.4151 161.243 46.6471C161.011 46.8791 160.895 47.2031 160.895 47.6191V51.3511H159.227V45.0151ZM174.044 51.4471C173.508 51.4471 173.088 51.3231 172.784 51.0751C172.48 50.8271 172.256 50.5551 172.112 50.2591H172.016V53.8471H170.348V45.0151H172.016V45.9991H172.112C172.24 45.7271 172.456 45.4711 172.76 45.2311C173.064 44.9831 173.488 44.8591 174.032 44.8591C174.84 44.8591 175.46 45.1591 175.892 45.7591C176.332 46.3591 176.552 47.1631 176.552 48.1711C176.552 49.1551 176.332 49.9471 175.892 50.5471C175.46 51.1471 174.844 51.4471 174.044 51.4471ZM173.444 50.1271C173.924 50.1271 174.28 49.9351 174.512 49.5511C174.752 49.1671 174.872 48.7031 174.872 48.1591C174.872 47.6311 174.752 47.1791 174.512 46.8031C174.28 46.4191 173.924 46.2271 173.444 46.2271C172.972 46.2271 172.616 46.4191 172.376 46.8031C172.136 47.1871 172.016 47.6431 172.016 48.1711C172.016 48.7071 172.136 49.1671 172.376 49.5511C172.616 49.9351 172.972 50.1271 173.444 50.1271ZM180.033 51.4471C179.249 51.4471 178.637 51.1471 178.197 50.5471C177.757 49.9471 177.537 49.1551 177.537 48.1711C177.537 47.1711 177.757 46.3711 178.197 45.7711C178.645 45.1631 179.269 44.8591 180.069 44.8591C180.605 44.8591 181.025 44.9831 181.329 45.2311C181.633 45.4711 181.849 45.7271 181.977 45.9991H182.073V45.0151H183.741V51.3511H182.073V50.2591H181.977C181.833 50.5551 181.609 50.8271 181.305 51.0751C181.001 51.3231 180.577 51.4471 180.033 51.4471ZM180.645 50.1031C181.117 50.1031 181.473 49.9111 181.713 49.5271C181.953 49.1431 182.073 48.6831 182.073 48.1471C182.073 47.6111 181.953 47.1551 181.713 46.7791C181.481 46.4031 181.125 46.2151 180.645 46.2151C180.165 46.2151 179.809 46.4031 179.577 46.7791C179.345 47.1551 179.229 47.6111 179.229 48.1471C179.229 48.6911 179.345 49.1551 179.577 49.5391C179.809 49.9151 180.165 50.1031 180.645 50.1031ZM185.196 45.0151H186.876V45.9871H186.96C187.104 45.6751 187.336 45.4111 187.656 45.1951C187.976 44.9711 188.364 44.8591 188.82 44.8591C189.644 44.8591 190.224 45.1231 190.56 45.6511C190.904 46.1791 191.076 46.7791 191.076 47.4511V51.3511H189.42V47.7271C189.42 47.2631 189.308 46.8991 189.084 46.6351C188.868 46.3711 188.56 46.2391 188.16 46.2391C187.736 46.2391 187.416 46.3791 187.2 46.6591C186.984 46.9311 186.876 47.2871 186.876 47.7271V51.3511H185.196V45.0151ZM195.298 52.2511C195.186 52.5471 195.066 52.8071 194.938 53.0311C194.81 53.2631 194.582 53.4871 194.254 53.7031C193.934 53.9191 193.51 54.0271 192.982 54.0271C192.758 54.0271 192.566 54.0071 192.406 53.9671C192.246 53.9351 192.146 53.9151 192.106 53.9071V52.7431C192.234 52.7751 192.406 52.7911 192.622 52.7911C192.886 52.7911 193.098 52.7471 193.258 52.6591C193.418 52.5711 193.546 52.4551 193.642 52.3111C193.738 52.1671 193.834 51.9671 193.93 51.7111L194.134 51.2071L191.854 45.0151H193.534L194.902 49.3711H194.974L196.414 45.0151H198.094L195.298 52.2511Z" fill="white"/>
</svg>
